<?xml version="1.0" encoding="UTF-8"?>
<svg id="Layer_1" xmlns="http://www.w3.org/2000/svg" version="1.1" viewBox="0 0 20 20">
  <!-- Generator: Adobe Illustrator 30.1.0, SVG Export Plug-In . SVG Version: 2.1.1 Build 136)  -->
  <defs>
    <style>
      .st0 {
        fill: #666;
        fill-rule: evenodd;
      }
    </style>
  </defs>
  <path class="st0" d="M5.4,1.7h9.1c2.1,0,3.7,1.7,3.7,3.7v9.1c0,2.1-1.7,3.7-3.7,3.7H5.4c-2.1,0-3.7-1.7-3.7-3.7V5.5c0-2.1,1.7-3.7,3.7-3.7h0ZM10,6.4h0c2,0,3.6,1.6,3.6,3.6h0c0,2-1.6,3.6-3.6,3.6h0c-2,0-3.6-1.6-3.6-3.6h0c0-2,1.6-3.6,3.6-3.6h0ZM10,4.5h0c3,0,5.5,2.5,5.5,5.5h0c0,3-2.5,5.5-5.5,5.5h0c-3,0-5.4-2.4-5.4-5.5h0c0-3,2.4-5.5,5.4-5.5h0ZM15.4,3.5h0c.6,0,1.1.5,1.1,1.1h0c0,.6-.5,1.1-1.1,1.1h0c-.7,0-1.1-.5-1.1-1.1h0c0-.6.5-1.1,1.1-1.1h0ZM5.4,0h9.2c3,0,5.4,2.4,5.4,5.4v9.2c0,3-2.5,5.4-5.4,5.4H5.4C2.4,20,0,17.6,0,14.6V5.4C0,2.4,2.4,0,5.4,0h0Z"/>
</svg>