<?xml version="1.0" encoding="UTF-8"?>
<svg id="Layer_1" xmlns="http://www.w3.org/2000/svg" version="1.1" viewBox="0 0 20 20">
  <!-- Generator: Adobe Illustrator 30.1.0, SVG Export Plug-In . SVG Version: 2.1.1 Build 136)  -->
  <defs>
    <style>
      .st0 {
        fill: #666;
        fill-rule: evenodd;
      }
    </style>
  </defs>
  <path class="st0" d="M6.7,6.7h3.9v1.8c.8-1.2,2.2-2,3.8-2h1.1c2.5,0,4.5,2,4.5,4.5v8.9h-3.9v-7.2c0-1.5-1.1-2.7-2.6-2.7h0c-1.5,0-2.8,1.2-2.8,2.7h0v7.2h-3.9V6.7ZM2.4,0c1.3,0,2.4,1.1,2.4,2.4s-1.1,2.4-2.4,2.4S0,3.7,0,2.4,1.1,0,2.4,0h0ZM.4,6.7h3.9v13.3H.4V6.7Z"/>
</svg>