<?xml version="1.0" encoding="UTF-8"?>
<svg id="Layer_1" xmlns="http://www.w3.org/2000/svg" version="1.1" viewBox="0 0 20 20">
  <!-- Generator: Adobe Illustrator 30.1.0, SVG Export Plug-In . SVG Version: 2.1.1 Build 136)  -->
  <defs>
    <style>
      .st0 {
        fill: #666;
        fill-rule: evenodd;
      }
    </style>
  </defs>
  <path class="st0" d="M16.2,4.3c-1.1-.7-2-2-2.2-3.3,0-.3,0-.6,0-.9h-3.4v13.5c0,1.6-1.3,2.9-2.9,2.9s-1-.1-1.4-.3c-.9-.5-1.5-1.5-1.5-2.5,0-1.6,1.3-2.9,2.9-2.9s.6,0,.9.1v-3.4c-.3,0-.6,0-.9,0-3.5,0-6.3,2.8-6.3,6.3s1.1,4,2.7,5.1c1,.7,2.3,1.1,3.6,1.1,3.5,0,6.2-2.8,6.2-6.2v-7c1.3,1.2,3,1.7,4.7,1.6v-3.4c-.9.2-1.7,0-2.4-.6h0Z"/>
</svg>